{"asset":{"version":"2.0","generator":"babylon.js glTF exporter for 3ds max 2015 v1.3.32"},"scene":0,"scenes":[{"nodes":[0,1,4],"extensions":{}}],"nodes":[{"mesh":0,"translation":[-15.1342125,10.13413,13.1677914],"rotation":[0.0,0.0,0.0,1.0],"scale":[0.223547369,0.223547369,0.223547369],"name":"Box001"},{"children":[2,3],"translation":[-2.55294323,12.6462574,16.8666687],"rotation":[0.0,0.0,0.0,1.0],"scale":[1.0,1.0,1.0],"name":"Group001"},{"mesh":1,"translation":[4.72617245,-0.75094223,-1.49583817],"rotation":[0.0,0.0,0.0,1.0],"scale":[0.223547369,0.223547369,0.223547369],"name":"Torus001"},{"mesh":2,"translation":[-5.53202152,-2.51212883,4.772064],"rotation":[-0.244562209,0.08515693,-0.1450108,0.954939544],"scale":[0.223547384,0.223547414,0.223547384],"name":"Teapot001"},{"translation":[0.0,0.0,0.0],"rotation":[0.0,0.0,0.0,1.0],"scale":[1.0,1.0,1.0],"name":"Default light"}],"meshes":[{"primitives":[{"attributes":{"POSITION":1,"NORMAL":2,"TEXCOORD_0":3},"indices":0}],"name":"Box001"},{"primitives":[{"attributes":{"POSITION":5,"NORMAL":6,"TEXCOORD_0":7},"indices":4}],"name":"Torus001"},{"primitives":[{"attributes":{"POSITION":9,"NORMAL":10,"TEXCOORD_0":11},"indices":8}],"name":"Teapot001"}],"accessors":[{"bufferView":0,"componentType":5123,"count":36,"type":"SCALAR","name":"accessorIndices"},{"bufferView":1,"componentType":5126,"count":36,"max":[15.8574753,22.63269,7.05609131],"min":[-15.8574753,0.0,-7.05609131],"type":"VEC3","name":"accessorPositions"},{"bufferView":1,"byteOffset":432,"componentType":5126,"count":36,"type":"VEC3","name":"accessorNormals"},{"bufferView":2,"componentType":5126,"count":36,"type":"VEC2","name":"accessorUVs"},{"bufferView":0,"byteOffset":72,"componentType":5123,"count":1728,"type":"SCALAR","name":"accessorIndices"},{"bufferView":1,"byteOffset":864,"componentType":5126,"count":1728,"max":[28.9852562,7.855671,28.9852524],"min":[-28.9852562,-7.85567474,-28.98526],"type":"VEC3","name":"accessorPositions"},{"bufferView":1,"byteOffset":21600,"componentType":5126,"count":1728,"type":"VEC3","name":"accessorNormals"},{"bufferView":2,"byteOffset":288,"componentType":5126,"count":1728,"type":"VEC2","name":"accessorUVs"},{"bufferView":0,"byteOffset":3528,"componentType":5123,"count":3072,"type":"SCALAR","name":"accessorIndices"},{"bufferView":1,"byteOffset":42336,"componentType":5126,"count":3072,"max":[35.927433,33.01263,20.9603958],"min":[-31.4405975,0.0,-20.9603958],"type":"VEC3","name":"accessorPositions"},{"bufferView":1,"byteOffset":79200,"componentType":5126,"count":3072,"type":"VEC3","name":"accessorNormals"},{"bufferView":2,"byteOffset":14112,"componentType":5126,"count":3072,"type":"VEC2","name":"accessorUVs"}],"bufferViews":[{"buffer":0,"byteLength":9672,"name":"bufferViewScalar"},{"buffer":0,"byteOffset":9672,"byteLength":116064,"byteStride":12,"name":"bufferViewFloatVec3"},{"buffer":0,"byteOffset":125736,"byteLength":38688,"byteStride":8,"name":"bufferViewFloatVec2"}],"buffers":[{"uri":"3dsmaxTesting.bin","byteLength":164424}]}